<?xml version="1.0" encoding="utf-8"?>
<!-- Generator: Adobe Illustrator 26.0.3, SVG Export Plug-In . SVG Version: 6.00 Build 0)  -->
<svg version="1.0" id="katman_1" xmlns="http://www.w3.org/2000/svg" xmlns:xlink="http://www.w3.org/1999/xlink" x="0px" y="0px"
	 viewBox="0 0 600 450" style="enable-background:new 0 0 600 450;" xml:space="preserve">
<style type="text/css">
	.st0{fill-rule:evenodd;clip-rule:evenodd;fill:#010202;}
	.st1{fill:#010202;}
</style>
<g>
	<path class="st0" d="M416.9,223.3V94.3h-23.7v98.2c-5.1,7.2-9.2,11.3-13.8,11.3c-3,0-4.4-1.2-5-4.9v-8.9V94.3h-23.8v102.1
		c0,8.9,1.1,14.9,2.7,18.8c2.5,6.3,7.5,9.8,14.9,9.8c8.3,0,15.9-5.3,24.9-15.8v14.1H416.9z M309.5,184.9c1.2,12.8-2.7,19.1-10,19.1
		c-7.3,0-11.3-6.3-10-19.1v-51c-1.2-12.8,2.7-18.8,10-18.8c7.3,0,11.3,6,10,18.8V184.9z M333.2,136.4c0-13.8-2.7-24.1-7.4-30.6
		c-6.4-8.8-16.2-12.4-26.3-12.4c-11.3,0-20,3.6-26.3,12.4c-4.9,6.5-7.4,17-7.4,30.7v45.9c0,13.6,2.3,23.2,7.1,29.6
		c6.3,8.8,16.5,13.4,26.6,13.4c10,0,20.4-4.7,26.7-13.4c4.9-6.4,7-15.9,7-29.6C333.2,182.4,333.2,136.4,333.2,136.4z M239.5,153
		l31.2-102.2h-26.2l-17.5,67.3l-17.6-67.3h-26.2C188.8,67,214.6,153,214.6,153v70.2h24.9C239.5,223.3,239.5,153,239.5,153z"/>
	<g>
		<path class="st1" d="M324.1,300.5c-2.3,0-5,1.2-7.4,3.6v48.3c2.4,2.5,5.1,3.6,7.4,3.6c4.1,0,5.9-3,5.9-11v-34.2
			C330,302.8,328.3,300.5,324.1,300.5z"/>
		<path class="st1" d="M382.4,310c0-7.3-1.9-9.5-6.5-9.5c-4.8,0-6.7,2.1-6.7,9.5v8.8h13.2V310z"/>
		<path class="st0" d="M376,356c3.5,0,5.5-1.9,6.3-5.8c0.1-0.7,0.1-4.1,0.1-9.9h14.9v2.2c0,4.6-0.4,8-0.5,9.4
			c-0.5,3.2-1.5,6.1-3.3,8.7c-3.9,5.8-9.7,8.6-17.2,8.6c-7.3,0-13-2.7-17.1-8.2c-3-3.9-5-9.8-5-18.3v-27.9c0-8.5,1.8-15.1,4.8-19.1
			c4.1-5.4,9.7-8.3,17-8.3c7.1,0,12.7,2.9,16.8,8.3c2.9,4,4.5,10.2,4.5,18.8v16.2h-28.1v14.3C369.1,352.4,371.2,356,376,356z
			 M344.9,344.2c0,7.3-0.6,12.6-1.6,15.9c-1.9,5.9-6,9-11.7,9c-5,0-10.1-3.1-14.9-9v8h-14.1V261.4h14.1v34.7c4.5-5.7,9.7-9,14.9-9
			c5.7,0,9.5,3.4,11.4,9.3c0.9,3.2,1.9,8.4,1.9,15.9V344.2z M290.9,368.1h-14.8v-8.7c-5.7,6.5-10.4,9.8-15.6,9.8
			c-4.5,0-7.8-2.2-9.3-6.1c-1-2.5-1.7-6.2-1.7-11.8v-62.9h14.8v58.9v5.6c0.4,2.3,1.3,3,3.2,3c2.8,0,5.4-2.5,8.6-7v-60.5h14.8V368.1z
			 M234.7,368.1h-15.6v-91.6h-16.4v-15.1h49.2v15.1h-17.2V368.1z M414.6,269.3c0,0-2.4-16.3-9.3-23.5c-8.9-9.4-18.8-9.5-23.4-10
			c-32.7-2.4-81.7-2.4-81.7-2.4h-0.1c0,0-49.1,0-81.8,2.4c-4.5,0.5-14.5,0.6-23.4,10c-6.9,7.1-9.3,23.5-9.3,23.5s-2.3,19.2-2.3,38.4
			v18c0,19.1,2.3,38.3,2.3,38.3s2.4,16.3,9.3,23.6c8.9,9.4,20.6,9.1,25.7,10.1c18.7,1.8,79.4,2.3,79.4,2.3s49.1,0,81.8-2.4
			c4.5-0.6,14.5-0.6,23.4-10c6.9-7.2,9.3-23.6,9.3-23.6s2.3-19.1,2.3-38.3v-18C416.9,288.5,414.6,269.3,414.6,269.3z"/>
	</g>
</g>
</svg>
